<?xml version="1.0" encoding="utf-8"?>
<!-- Generator: Adobe Illustrator 27.5.0, SVG Export Plug-In . SVG Version: 6.00 Build 0)  -->
<svg version="1.1" xmlns="http://www.w3.org/2000/svg" xmlns:xlink="http://www.w3.org/1999/xlink" x="0px" y="0px"
	 viewBox="0 0 500 500" style="enable-background:new 0 0 500 500;" xml:space="preserve">
<g id="BACKGROUND">
	<rect style="fill:#FFFFFF;" width="500" height="500"/>
</g>
<g id="OBJECTS">
	<g style="opacity:0.4;">
		<path style="fill:#969696;" d="M474.265,314.26c-3.582-20.841-17.744-38.001-30.365-54.969
			c-12.621-16.967-24.661-36.557-22.88-57.628c2.56-30.295,32.782-53.205,34.05-83.582c1.103-26.42-21.731-49.445-47.369-55.922
			c-25.638-6.477-52.839,0.286-77.223,10.516c-24.384,10.231-47.322,23.931-72.409,32.29
			c-36.167,12.05-74.983,12.448-113.009,15.143c-27.977,1.983-57.24,5.776-80.028,22.127
			c-17.475,12.539-29.849,32.362-32.197,53.742c-2.348,21.38,5.787,43.921,22.067,57.977c25.231,21.786,62.628,20.078,95.615,15.274
			c32.987-4.804,68.617-11.08,98.112,4.453c29.542,15.557,44.744,48.826,69.278,71.472c26.832,24.767,67.738,34.429,103.578,36.72
			C455.182,384.026,479.609,345.353,474.265,314.26z"/>
		<path style="fill:#969696;" d="M77.516,284.904c-10.053-5.705-20.106-11.41-30.159-17.115c-3.314-1.881-6.852-3.819-10.66-3.675
			c-7.064,0.267-12.02,7.994-11.682,15.055c0.338,7.061,4.495,13.33,8.932,18.833c5.792,7.184,12.425,13.861,20.46,18.4
			c8.035,4.538,17.62,6.794,26.638,4.837c6.74-1.463,19.541-8.366,18.861-16.735C99.234,296.225,83.609,288.362,77.516,284.904z"/>
	</g>
	<g>
		<g>
			<path style="fill:#2E363D;" d="M91.985,149.4c-0.002,0-0.004,0-0.006,0l-0.236-0.001l0.008-0.814l0.229,0.001
				c0.002,0,0.004,0,0.005,0c1.797,0,3.59-0.193,5.331-0.574l0.174,0.795C95.692,149.2,93.84,149.4,91.985,149.4z M86.008,148.701
				c-1.877-0.448-3.705-1.111-5.434-1.97l0.363-0.729c1.674,0.832,3.443,1.474,5.26,1.907L86.008,148.701z M102.958,146.937
				l-0.349-0.736c1.684-0.798,3.282-1.791,4.751-2.951l0.505,0.639C106.347,145.088,104.697,146.113,102.958,146.937z
				 M75.723,143.591c-1.492-1.224-2.847-2.617-4.028-4.142l0.643-0.499c1.144,1.476,2.457,2.826,3.901,4.01L75.723,143.591z
				 M111.968,139.824l-0.635-0.51c1.174-1.458,2.182-3.047,2.997-4.725l0.732,0.355C114.222,136.677,113.18,138.319,111.968,139.824
				z M68.692,134.515c-0.811-1.751-1.422-3.597-1.817-5.485l0.797-0.167c0.382,1.828,0.975,3.614,1.759,5.31L68.692,134.515z
				 M116.983,129.491l-0.794-0.181c0.414-1.812,0.625-3.682,0.625-5.559h0.814C117.628,125.688,117.411,127.62,116.983,129.491z
				 M67.149,123.293l-0.814-0.014c0.035-1.936,0.287-3.863,0.75-5.728l0.79,0.196C67.427,119.552,67.183,121.418,67.149,123.293z
				 M116.377,119.086c-0.349-1.835-0.907-3.632-1.661-5.341l0.745-0.328c0.778,1.766,1.355,3.623,1.715,5.518L116.377,119.086z
				 M69.832,112.504l-0.726-0.369c0.874-1.718,1.945-3.34,3.184-4.823l0.625,0.522C71.715,109.27,70.678,110.841,69.832,112.504z
				 M111.897,108.914c-1.117-1.497-2.405-2.87-3.827-4.081l0.528-0.62c1.469,1.25,2.799,2.669,3.952,4.215L111.897,108.914z
				 M76.961,103.97l-0.493-0.648c1.537-1.169,3.206-2.163,4.962-2.957l0.335,0.742C80.065,101.876,78.449,102.839,76.961,103.97z
				 M103.429,101.706c-1.659-0.863-3.416-1.537-5.224-2.004l0.204-0.788c1.867,0.482,3.683,1.178,5.396,2.07L103.429,101.706z
				 M87.091,99.396l-0.16-0.798c1.65-0.33,3.346-0.497,5.043-0.497c0.244,0,0.477,0.003,0.714,0.01l-0.022,0.814
				c-0.23-0.007-0.474-0.024-0.692-0.009C90.33,98.916,88.687,99.078,87.091,99.396z"/>
		</g>
		<g>
			<circle style="fill:#2E363D;" cx="116" cy="138" r="7.735"/>
		</g>
		<g>
			<circle style="fill:#2E363D;" cx="148" cy="173" r="6.107"/>
		</g>
		<g>
			<path style="fill:#2E363D;" d="M158.992,191.728c-0.484,0-0.969-0.031-1.444-0.094l0.106-0.807
				c1.81,0.238,3.683-0.016,5.363-0.74l0.322,0.747C161.965,191.427,160.502,191.728,158.992,191.728z M152.166,189.352
				c-1.557-1.236-2.751-2.867-3.453-4.717l0.761-0.289c0.65,1.713,1.757,3.223,3.199,4.367L152.166,189.352z M167.9,187.177
				l-0.659-0.478c1.078-1.488,1.732-3.241,1.891-5.071l0.811,0.071C169.771,183.676,169.065,185.57,167.9,187.177z M148.814,180.735
				H148c0-1.989,0.537-3.938,1.553-5.636l0.699,0.418C149.311,177.089,148.814,178.893,148.814,180.735z M168.157,176.305
				c-0.8-1.652-2.034-3.059-3.569-4.072l0.448-0.68c1.657,1.093,2.989,2.614,3.854,4.396L168.157,176.305z M154.163,171.773
				l-0.387-0.716c1.733-0.936,3.742-1.391,5.699-1.304l-0.036,0.814C157.631,170.489,155.768,170.907,154.163,171.773z"/>
		</g>
		<g>
			<path style="fill:#2E363D;" d="M406.182,102.006c0,3.148-2.552,5.7-5.7,5.7c-3.148,0-5.7-2.552-5.7-5.7
				c0-3.148,2.552-5.7,5.7-5.7C403.63,96.306,406.182,98.858,406.182,102.006z"/>
		</g>
		<g>
			<path style="fill:#2E363D;" d="M412.977,123.815c-1.971-0.147-3.854-0.691-5.597-1.616l0.382-0.719
				c1.643,0.871,3.418,1.384,5.276,1.522L412.977,123.815z M418.753,123.062l-0.269-0.768c1.753-0.612,3.335-1.566,4.704-2.835
				l0.553,0.596C422.289,121.401,420.611,122.413,418.753,123.062z M402.9,118.476c-1.233-1.548-2.114-3.299-2.62-5.204l0.787-0.208
				c0.477,1.795,1.308,3.445,2.47,4.904L402.9,118.476z M427.115,115.307l-0.746-0.326c0.743-1.698,1.119-3.506,1.119-5.376h0.814
				C428.303,111.588,427.903,113.506,427.115,115.307z M427.41,108.14c-0.201-1.85-0.773-3.606-1.7-5.22l0.706-0.406
				c0.984,1.712,1.59,3.575,1.803,5.538L427.41,108.14z M400.769,107.58l-0.805-0.122c0.294-1.951,0.98-3.787,2.036-5.459
				l0.689,0.436C401.693,104.01,401.047,105.741,400.769,107.58z M422.06,98.816c-1.497-1.113-3.174-1.889-4.985-2.304l0.183-0.794
				c1.92,0.441,3.7,1.264,5.287,2.444L422.06,98.816z M406.508,98.487l-0.458-0.673c1.636-1.113,3.448-1.859,5.386-2.219l0.148,0.8
				C409.758,96.735,408.05,97.439,406.508,98.487z"/>
		</g>
	</g>
	<g>
		<g>
			<path style="fill:#2E363D;" d="M209.705,99.344l-5.1,2.63l-0.263-0.51c-0.448-0.868-0.713-1.623-0.795-2.266
				c-0.082-0.643-0.044-1.288,0.114-1.937c0.159-0.648,0.627-1.886,1.406-3.715c0.42-0.964,0.503-1.693,0.25-2.185
				c-0.254-0.492-0.596-0.8-1.028-0.923c-0.432-0.123-0.943-0.032-1.533,0.272c-0.635,0.328-1.052,0.809-1.252,1.444
				c-0.199,0.635-0.087,1.506,0.337,2.613l-5.54,2.041c-0.809-2.007-0.908-3.907-0.298-5.7c0.61-1.793,2.168-3.335,4.673-4.628
				c1.951-1.006,3.735-1.411,5.354-1.215c2.196,0.261,3.767,1.308,4.713,3.143c0.392,0.761,0.56,1.603,0.504,2.526
				c-0.056,0.924-0.47,2.23-1.241,3.919c-0.535,1.182-0.809,2.051-0.822,2.607C209.171,98.019,209.345,98.646,209.705,99.344z
				 M205.129,103.42l5.463-2.817l2.485,4.818l-5.463,2.817L205.129,103.42z"/>
		</g>
		<g>
			<path style="fill:#2E363D;" d="M242.019,68.261l-3.671,0.86l-0.086-0.367c-0.146-0.625-0.194-1.148-0.144-1.571
				c0.05-0.423,0.178-0.828,0.383-1.216c0.205-0.388,0.702-1.102,1.49-2.143c0.422-0.547,0.592-0.998,0.509-1.352
				c-0.083-0.354-0.252-0.605-0.507-0.752c-0.255-0.147-0.595-0.171-1.021-0.072c-0.457,0.107-0.8,0.347-1.029,0.72
				c-0.229,0.373-0.297,0.946-0.204,1.719l-3.857,0.414c-0.194-1.408,0.047-2.635,0.723-3.68c0.676-1.045,1.915-1.778,3.719-2.201
				c1.404-0.329,2.606-0.301,3.606,0.083c1.358,0.518,2.191,1.437,2.5,2.757c0.128,0.547,0.101,1.111-0.083,1.691
				c-0.184,0.58-0.656,1.346-1.418,2.299c-0.53,0.668-0.844,1.178-0.941,1.53C241.891,67.331,241.901,67.758,242.019,68.261z
				 M238.451,70.126l3.932-0.921l0.812,3.468l-3.932,0.921L238.451,70.126z"/>
		</g>
		<g>
			<path style="fill:#2E363D;" d="M280.054,61.556l-4.368-1.331l0.133-0.437c0.227-0.743,0.495-1.321,0.805-1.733
				s0.69-0.759,1.14-1.041c0.45-0.282,1.405-0.728,2.864-1.338c0.775-0.317,1.227-0.686,1.355-1.107
				c0.128-0.422,0.104-0.787-0.074-1.097c-0.178-0.31-0.52-0.542-1.025-0.696c-0.544-0.166-1.049-0.123-1.515,0.129
				c-0.466,0.252-0.886,0.81-1.259,1.677l-4.292-1.911c0.653-1.593,1.651-2.732,2.995-3.415c1.343-0.684,3.088-0.698,5.233-0.044
				c1.671,0.509,2.913,1.269,3.728,2.279c1.107,1.368,1.422,2.837,0.943,4.408c-0.199,0.651-0.57,1.225-1.115,1.721
				c-0.545,0.496-1.506,1.011-2.883,1.546c-0.961,0.377-1.6,0.721-1.916,1.03C280.486,60.505,280.236,60.958,280.054,61.556z
				 M275.183,61.34l4.679,1.426l-1.258,4.127l-4.678-1.426L275.183,61.34z"/>
		</g>
		<g>
			<path style="fill:#2E363D;" d="M309.681,92.851l-3.945-2.3l0.23-0.395c0.391-0.671,0.785-1.172,1.182-1.502
				c0.396-0.33,0.846-0.58,1.349-0.751c0.503-0.171,1.534-0.385,3.095-0.644c0.827-0.13,1.351-0.385,1.573-0.766
				c0.222-0.381,0.282-0.742,0.18-1.084c-0.102-0.342-0.381-0.647-0.838-0.913c-0.492-0.286-0.993-0.361-1.504-0.223
				c-0.512,0.138-1.048,0.585-1.61,1.342l-3.738-2.847c1.002-1.4,2.235-2.279,3.699-2.635c1.464-0.356,3.166,0.03,5.104,1.16
				c1.509,0.88,2.543,1.905,3.104,3.075c0.763,1.586,0.731,3.088-0.096,4.507c-0.343,0.588-0.837,1.061-1.481,1.418
				c-0.644,0.357-1.698,0.638-3.161,0.842c-1.022,0.146-1.722,0.334-2.102,0.562C310.343,91.927,309.996,92.311,309.681,92.851z
				 M304.99,91.521l4.225,2.463l-2.173,3.727l-4.225-2.463L304.99,91.521z"/>
		</g>
	</g>
	<g>
		<g>
			<g>
				<path style="fill:#121D30;" d="M254.933,99.044c0,0,10.115-14.757,22.767-7.4c15.838,9.21-3.29,31.151,8.417,37.5
					c11.707,6.349,23.81,6.843,27.183,24.405c4.41,22.961-37.121,55.24-72.241,34.804c-35.119-20.437-22.626-58.685-6.133-66.298
					C254.769,112.894,254.933,99.044,254.933,99.044z"/>
				<path style="fill:#D28A7B;" d="M269.355,138.206v15.742c0,2.625-1.067,5.001-2.789,6.722c-1.712,1.721-4.087,2.789-6.712,2.789
					c-5.251,0-9.501-4.26-9.501-9.51v-15.742H269.355z"/>
				<g>
					<path style="fill:#D28A7B;" d="M229.589,127.415c0.789,3.852,4.551,6.335,8.402,5.547c3.852-0.789,6.335-4.551,5.547-8.402
						c-0.789-3.852-4.551-6.335-8.402-5.547C231.284,119.801,228.8,123.563,229.589,127.415z"/>
					<path style="fill:#121D30;" d="M240.268,115.494v12.001c0,0-4.765-4.233-4.633-12.566L240.268,115.494z"/>
					
						<line style="fill:none;stroke:#121D30;stroke-width:0.75;stroke-miterlimit:10;" x1="231.54" y1="124.716" x2="237.181" y2="128.533"/>
				</g>
				<g>
					<path style="fill:#D28A7B;" d="M270.809,125.987c0.789,3.852,4.55,6.335,8.402,5.546c3.852-0.789,6.335-4.55,5.546-8.402
						c-0.789-3.852-4.55-6.335-8.402-5.547C272.504,118.373,270.021,122.135,270.809,125.987z"/>
					<path style="fill:#121D30;" d="M277.784,124.559c0,0,4.072-4.453,2.641-15.012h-5.708L277.784,124.559z"/>
					
						<line style="fill:none;stroke:#121D30;stroke-width:0.75;stroke-miterlimit:10;" x1="276.611" y1="127.7" x2="282.134" y2="122.35"/>
				</g>
				<path style="fill:#D28A7B;" d="M259.026,96.736L259.026,96.736c-10.36,0-18.758,8.398-18.758,18.758v13.657
					c0,2.886,1.486,5.569,3.932,7.099l10.383,6.497c2.717,1.701,6.167,1.701,8.885,0l10.383-6.497
					c2.447-1.531,3.932-4.214,3.932-7.099v-13.657C277.784,105.134,269.386,96.736,259.026,96.736z"/>
				<path style="fill:none;stroke:#121D30;stroke-width:0.75;stroke-miterlimit:10;" d="M250.353,140.257l4.23,2.647
					c2.717,1.7,6.167,1.7,8.885,0"/>
				<polyline style="fill:none;stroke:#121D30;stroke-width:0.75;stroke-miterlimit:10;" points="257.454,96.736 262.161,129.149 
					256.255,129.149 				"/>
				<path style="fill:#CB705D;" d="M276.948,125.025c0,2.651-2.149,4.8-4.8,4.8c-2.651,0-4.8-2.149-4.8-4.8
					c0-2.651,2.149-4.8,4.8-4.8C274.8,120.225,276.948,122.374,276.948,125.025z"/>
				<path style="fill:#CB705D;" d="M251.399,125.025c0,2.651-2.149,4.8-4.8,4.8c-2.651,0-4.8-2.149-4.8-4.8
					c0-2.651,2.149-4.8,4.8-4.8C249.251,120.225,251.399,122.374,251.399,125.025z"/>
				<g>
					<path style="fill:#121D30;" d="M269.348,120.439c0,1.667-0.734,3.01-1.646,3.01c-0.912,0-1.657-1.342-1.657-3.01
						c0-1.342,0.493-2.485,1.164-2.863h0.01l2.024,1.793C269.306,119.694,269.348,120.061,269.348,120.439z"/>
					<path style="fill:#121D30;" d="M252.004,120.439c0,1.667-0.734,3.01-1.646,3.01c-0.923,0-1.657-1.342-1.657-3.01
						c0-0.482,0.063-0.933,0.178-1.332l2.318-1.237C251.689,118.394,252.004,119.348,252.004,120.439z"/>
				</g>
				<path style="fill:#121D30;" d="M280.955,94.184c-12.655-7.356-26.027,4.855-26.027,4.855s-0.163,13.857-20.002,23.012
					c-4.183,1.933-9.789,8.811-12.414,12.995c0,0,5.798-16.726,7.625-27.544c1.837-10.828,11.453-9.155,11.453-9.155
					s5.827-14.242,21.944-14.174C274.699,84.221,280.955,94.184,280.955,94.184z"/>
				<path style="fill:#121D30;" d="M268.101,108.684c2.294-1.493,3.74-1.161,3.397,2.023L268.101,108.684z"/>
				<path style="fill:#121D30;" d="M245.186,111.395c-0.516-2.688,0.337-3.902,3.156-2.383L245.186,111.395z"/>
			</g>
			<path style="fill:none;stroke:#121D30;stroke-width:0.75;stroke-miterlimit:10;" d="M255.996,134.609
				c2.49-3.367,5.628-1.985,6.424,0"/>
		</g>
		<g>
			<path style="fill:#D28A7B;" d="M339.619,198.481L339.619,198.481c3.086-3.873,2.449-9.514-1.424-12.601l-34.842-27.767
				c-3.873-3.086-9.514-2.449-12.601,1.424l0,0c-3.086,3.873-2.449,9.514,1.424,12.601l34.842,27.767
				C330.891,202.992,336.532,202.354,339.619,198.481z"/>
			<path style="fill:#D28A7B;" d="M181.57,200.01L181.57,200.01c-3.086-3.873-2.449-9.515,1.424-12.601l34.842-27.767
				c3.873-3.086,9.515-2.449,12.601,1.424l0,0c3.086,3.873,2.449,9.515-1.424,12.601l-34.842,27.767
				C190.298,204.52,184.656,203.883,181.57,200.01z"/>
			<path style="fill:#EDB837;" d="M288.072,149.106l-25.911,8.608v0.276l-26.742-8.885c-8.467-2.813-16.554,5.159-13.862,13.666
				l20.065,63.393h20.539h15.334l24.438-63.393C304.626,154.265,296.539,146.293,288.072,149.106z"/>
			<polygon style="fill:#EDB837;" points="272.856,167.122 275.526,149.525 245.334,146.596 248.14,167.122 			"/>
			<g>
				<path style="fill:#FFFFFF;" d="M247.526,157.901c4.295,8.143,10.939,11.852,16.331,11.852c4.125,0,7.496-2.068,9.558-5.651
					c-1.11,10.561-4.133,26.203-10.514,26.203c-0.45,0-0.922-0.078-1.404-0.231c-4.511-1.435-8.488-8.371-11.501-20.057
					C248.847,165.563,248.045,161.189,247.526,157.901 M246.014,152.374c0,0,3.585,34.702,15.256,38.416
					c0.567,0.18,1.111,0.266,1.632,0.266c10.199,0,11.732-32.905,11.732-32.905c-1.119,7.296-5.586,10.852-10.777,10.852
					C257.304,169.003,249.598,163.338,246.014,152.374L246.014,152.374z"/>
			</g>
			<g>
				<polygon style="fill:#2E363D;" points="234.41,215.111 284.275,212.408 279.905,225.042 238.393,224.593 				"/>
				<path style="fill:#2E363D;" d="M279.905,225.042c0,0,17.081,15.792,18.093,43.958h-76.383c0-26.471,16.779-44.407,16.779-44.407
					L279.905,225.042z"/>
				<path style="fill:none;stroke:#FFFFFF;stroke-width:0.75;stroke-miterlimit:10;" d="M260.306,227.892l1.023,20.908
					c0,0-4.071-1.646-3.973-8.654"/>
				<path style="fill:none;stroke:#FFFFFF;stroke-width:0.75;stroke-miterlimit:10;" d="M289.054,236.68h-12.375
					c0,0,5.767,13.48,18.035,12.298"/>
				<path style="fill:none;stroke:#FFFFFF;stroke-width:0.75;stroke-miterlimit:10;" d="M223.438,250.915
					c0,0,9.137,2.201,17.239-10.78"/>
				<g>
					<rect x="239.806" y="222.886" style="fill:#2E363D;" width="8.641" height="4.321"/>
					<rect x="269.101" y="222.886" style="fill:#2E363D;" width="8.641" height="4.321"/>
					<rect x="252.462" y="222.886" style="fill:#2E363D;" width="13.128" height="4.321"/>
					<rect x="255.802" y="222.017" style="fill:#FFFFFF;" width="6.447" height="6.058"/>
				</g>
			</g>
			<path style="fill:#D28A7B;" d="M184.279,186.362L184.279,186.362c5.298-3.314,12.279-1.705,15.592,3.593l22.529,40.535
				l-6.9,7.988l-34.814-36.523C177.372,196.657,178.981,189.676,184.279,186.362z"/>
			<g>
				<g>
					<path style="fill:#D28A7B;" d="M219.593,228.012c9.123-0.038,17.372-4.634,17.372-4.634l5.127,16.016
						c-15.016,5.693-22.611,1.942-26.615-0.892L219.593,228.012z"/>
					<path style="fill:#D28A7B;" d="M236.966,223.378c0,0,8.408-0.748,14.412,3.219l1.084,10c0,0-7.013-2.293-11.511-0.77
						c0,0,7.762,1.473,10.769,4.739l-2.129,2.147c0,0-6.712-2.966-13.978-1.938L236.966,223.378z"/>
				</g>
				<path style="fill:none;stroke:#121D30;stroke-width:0.75;stroke-miterlimit:10;" d="M251.591,229.147
					c0,0-7.006-2.269-12.272-2.418"/>
				<path style="fill:none;stroke:#121D30;stroke-width:0.75;stroke-miterlimit:10;" d="M252.077,233.054
					c0,0-6.171-2.488-12.582-2.02"/>
			</g>
			<g>
				<polygon style="fill:#E69230;" points="208.113,156.898 219.851,169.514 226.721,187.269 214.741,173.68 				"/>
				<polygon style="fill:#EDB837;" points="225.117,150.974 204.864,163.179 219.1,186.581 232.392,177.517 				"/>
				<polygon style="fill:#FFFFFF;" points="208.113,156.898 214.741,173.68 226.721,187.269 216.666,190.987 207.263,178.139 
					200.703,161.741 				"/>
			</g>
			
				<line style="fill:none;stroke:#121D30;stroke-width:0.75;stroke-miterlimit:10;" x1="202.688" y1="195.022" x2="199.871" y2="189.955"/>
			<path style="fill:#D28A7B;" d="M336.91,184.833L336.91,184.833c-5.298-3.314-12.279-1.705-15.592,3.593l-22.529,40.535l6.9,7.988
				l34.815-36.523C343.816,195.128,342.208,188.147,336.91,184.833z"/>
			<g>
				<g>
					<path style="fill:#D28A7B;" d="M301.596,226.484c-9.123-0.038-17.372-4.634-17.372-4.634l-5.127,16.016
						c15.016,5.693,22.611,1.942,26.615-0.892L301.596,226.484z"/>
					<path style="fill:#D28A7B;" d="M284.223,221.85c0,0-8.408-0.748-14.412,3.219l-1.085,10c0,0,7.013-2.293,11.511-0.77
						c0,0-7.762,1.473-10.769,4.739l2.129,2.147c0,0,6.712-2.966,13.978-1.938L284.223,221.85z"/>
				</g>
				<path style="fill:none;stroke:#121D30;stroke-width:0.75;stroke-miterlimit:10;" d="M269.598,227.618
					c0,0,7.006-2.269,12.272-2.418"/>
				<path style="fill:none;stroke:#121D30;stroke-width:0.75;stroke-miterlimit:10;" d="M269.111,231.525
					c0,0,6.171-2.488,12.582-2.02"/>
			</g>
			<g>
				<polygon style="fill:#E69230;" points="313.076,155.369 301.338,167.986 294.467,185.74 306.448,172.151 				"/>
				<polygon style="fill:#EDB837;" points="296.072,149.446 316.325,161.65 302.089,185.052 288.797,175.988 				"/>
				<polygon style="fill:#FFFFFF;" points="313.076,155.369 306.448,172.151 294.467,185.74 304.523,189.459 313.926,176.611 
					320.486,160.213 				"/>
			</g>
			
				<line style="fill:none;stroke:#121D30;stroke-width:0.75;stroke-miterlimit:10;" x1="318.501" y1="193.493" x2="321.317" y2="188.426"/>
		</g>
	</g>
	<g>
		<g>
			<path style="fill:#2E363D;" d="M411.096,201.075c-0.089,1.787,0.837,3.284,2.067,3.344c1.229,0.062,2.298-1.339,2.385-3.127
				c0.086-1.787-0.84-3.285-2.067-3.345C412.25,197.887,411.183,199.287,411.096,201.075z"/>
			<path style="opacity:0.53;fill:#2E363D;" d="M406.839,201.666c0.65,1.953,2.265,3.175,3.608,2.729
				c1.345-0.447,1.908-2.393,1.258-4.345c-0.649-1.954-2.263-3.175-3.607-2.73C406.754,197.767,406.19,199.712,406.839,201.666z"/>
			<path style="fill:#121D30;" d="M403.422,205.042c-0.983,2.69,1.109,5.926,4.672,7.227c3.563,1.3,7.246,0.172,8.228-2.52
				c0.983-2.691-1.111-5.927-4.673-7.227C408.087,201.221,404.402,202.35,403.422,205.042z"/>
		</g>
		<path style="fill:none;stroke:#121D30;stroke-width:0.75;stroke-miterlimit:10;stroke-dasharray:5.5166;" d="M399.66,204.605
			c-18.318-2.806-45.228,9.632-42.698,32.147c1.805,16.058,23.676,23.315,30.525,7.56c9.272-21.332-19.492-25.576-33.383-24.601
			c-15.956,1.12-26.413,1.579-44.66,22.584c-7.468,8.597-9.341,41.668,9.176,43.911"/>
		<g>
			<path style="fill:none;stroke:#121D30;stroke-width:0.75;stroke-miterlimit:10;stroke-dasharray:5.5166;" d="M105.395,203.322
				c-6.222,9.148,4.674,21,12.967,24.475c19.152,8.028,31.949-11.583,50.305-9.714c15.762,1.605,25.533,12.238,17.182,29.903
				c-5.176,10.946-30.169,14.1-29.299-1.64"/>
		</g>
		<g>
			<path style="fill:#2E363D;" d="M104.599,189.927c-0.869,1.564-2.446,2.346-3.522,1.747c-1.076-0.597-1.243-2.351-0.372-3.915
				c0.871-1.563,2.449-2.345,3.522-1.748C105.304,186.611,105.47,188.363,104.599,189.927z"/>
			<path style="opacity:0.53;fill:#2E363D;" d="M107.901,192.679c-1.584,1.315-3.601,1.499-4.505,0.41
				c-0.906-1.09-0.355-3.04,1.228-4.354c1.584-1.316,3.6-1.5,4.505-0.411C110.034,189.413,109.484,191.363,107.901,192.679z"/>
			<path style="fill:#121D30;" d="M109.019,197.35c-0.587,2.804-4.073,4.445-7.786,3.666c-3.712-0.779-6.242-3.683-5.654-6.488
				c0.588-2.804,4.075-4.445,7.786-3.666C107.077,191.641,109.608,194.547,109.019,197.35z"/>
		</g>
	</g>
	<g>
		<defs>
			<rect id="SVGID_1_" width="500" height="500"/>
		</defs>
		<clipPath id="SVGID_00000008141652258743139900000003057294013012135088_">
			<use xlink:href="#SVGID_1_"  style="overflow:visible;"/>
		</clipPath>
		<g style="clip-path:url(#SVGID_00000008141652258743139900000003057294013012135088_);">
			<g>
				<rect x="86.938" y="279.912" style="fill:#2E363D;" width="327.58" height="243.819"/>
				<g>
					<g>
						<rect x="102.688" y="301.227" style="fill:#969696;" width="296.086" height="213.069"/>
					</g>
					<g>
						<g>
							<g>
								<polygon style="fill:#E69230;" points="439.105,409.084 423.518,420.359 398.775,408.657 398.775,385.605 414.102,374.513 
																	"/>
								<polygon style="fill:#EDB837;" points="437.886,427.154 419.648,465.717 398.775,455.844 398.775,408.657 423.518,420.359 
																	"/>
							</g>
							<polygon style="fill:#EDB837;" points="102.688,411.415 102.688,459.349 51.769,425.722 73.8,392.34 							"/>
						</g>
						<g>
							
								<line style="fill:none;stroke:#121D30;stroke-width:0.75;stroke-miterlimit:10;" x1="413.284" y1="421.647" x2="430.997" y2="429.8"/>
							<g>
								<path style="fill:#121D30;" d="M421.431,425.219c1.402,0.371,2.702,0.945,3.977,1.569c1.265,0.644,2.504,1.34,3.641,2.24
									c-1.402-0.37-2.702-0.944-3.977-1.569C423.808,426.813,422.569,426.118,421.431,425.219z"/>
							</g>
							
								<line style="fill:none;stroke:#121D30;stroke-width:0.75;stroke-miterlimit:10;" x1="420.875" y1="431.299" x2="429.049" y2="434.954"/>
						</g>
						
							<line style="fill:none;stroke:#121D30;stroke-width:0.75;stroke-miterlimit:10;" x1="406.537" y1="386.971" x2="415.908" y2="380.505"/>
						
							<line style="fill:none;stroke:#121D30;stroke-width:0.75;stroke-miterlimit:10;" x1="58.846" y1="424.177" x2="72.435" y2="403.559"/>
					</g>
				</g>
				<g>
					<g>
						<path style="fill:#969696;" d="M200.658,394.895l-90.873,9.784c-1.365,0.147-2.591-0.84-2.737-2.205L90.29,246.841
							c-0.147-1.365,0.84-2.591,2.205-2.738l90.873-9.784c1.365-0.147,2.591,0.84,2.738,2.205l16.757,155.634
							C203.01,393.523,202.023,394.748,200.658,394.895z"/>
						<g>
							
								<rect x="107.531" y="239.636" transform="matrix(0.9128 -0.4084 0.4084 0.9128 -117.2654 91.5272)" style="fill:#FFFFFF;" width="96.369" height="161.504"/>
							<polyline style="fill:none;stroke:#121D30;stroke-width:0.75;stroke-miterlimit:10;" points="102.173,318.7 78.754,266.355 
								144.522,236.93 							"/>
						</g>
						<g>
							<path style="fill:none;stroke:#121D30;stroke-width:0.75;stroke-miterlimit:10;" d="M142.149,284.98l-11.574,5.463
								l-0.546-1.157c-0.93-1.969-1.461-3.674-1.594-5.113c-0.133-1.439,0.002-2.875,0.406-4.307
								c0.404-1.432,1.545-4.156,3.424-8.171c1.012-2.116,1.255-3.733,0.728-4.85c-0.527-1.117-1.267-1.829-2.219-2.137
								c-0.952-0.308-2.098-0.145-3.439,0.487c-1.442,0.681-2.409,1.721-2.903,3.121c-0.494,1.4-0.312,3.35,0.545,5.85
								l-12.507,4.116c-1.645-4.537-1.717-8.78-0.216-12.728c1.501-3.948,5.094-7.264,10.779-9.948
								c4.426-2.089,8.436-2.852,12.029-2.289c4.874,0.753,8.294,3.211,10.259,7.374c0.815,1.726,1.123,3.616,0.926,5.671
								c-0.197,2.055-1.222,4.934-3.073,8.638c-1.284,2.593-1.963,4.508-2.036,5.747
								C141.064,281.986,141.401,283.397,142.149,284.98z M131.631,293.706l12.396-5.851l5.161,10.934l-12.396,5.851
								L131.631,293.706z"/>
						</g>
						<g>
							<path style="fill:#5C5C5C;" d="M324.694,257.548l-8.759,16.817h-90.141c-2.589,0-4.688,2.099-4.688,4.688v118.381
								c0,2.589,2.099,4.688,4.688,4.688h172.882c2.589,0,4.688-2.099,4.688-4.688V283.156v-8.791v-14.651
								c0-2.589-2.099-4.688-4.688-4.688h-69.825C327.104,255.026,325.502,255.998,324.694,257.548z"/>
							<rect x="225.795" y="258.981" style="fill:#FFFFFF;" width="173.175" height="133.325"/>
							<path style="fill:#969696;" d="M324.694,265.9l-8.759,16.817h-90.141c-2.589,0-4.688,2.099-4.688,4.688v118.381
								c0,2.589,2.099,4.688,4.688,4.688h172.882c2.589,0,4.688-2.099,4.688-4.688V291.507v-8.791v-14.651
								c0-2.589-2.099-4.688-4.688-4.688h-69.825C327.104,263.377,325.502,264.349,324.694,265.9z"/>
							
								<line style="fill:none;stroke:#121D30;stroke-width:0.75;stroke-miterlimit:10;" x1="334.75" y1="263.5" x2="389.75" y2="263.5"/>
						</g>
						<g>
							<path style="fill:#E69230;" d="M277.462,256.508l-11.574,15.019l-88.742-15.815c-2.549-0.454-4.984,1.244-5.438,3.793
								l-20.77,116.544c-0.454,2.549,1.244,4.984,3.793,5.438l170.201,30.332c2.549,0.454,4.984-1.244,5.438-3.793l20.05-112.505
								l1.542-8.654l2.571-14.424c0.454-2.549-1.244-4.984-3.793-5.438l-68.742-12.251
								C280.277,254.448,278.529,255.124,277.462,256.508z"/>
							<g>
								<polygon style="fill:#FFFFFF;" points="326.943,402.207 156.453,371.824 176.503,259.318 194.846,243.241 350.334,270.951 
																	"/>
								<polygon style="fill:#DEDEDE;" points="176.503,259.318 194.846,243.241 199.674,263.745 								"/>
							</g>
							<path style="fill:#EDB837;" d="M275.997,264.73l-11.573,15.019l-88.742-15.815c-2.549-0.454-4.984,1.244-5.438,3.793
								l-20.77,116.544c-0.454,2.549,1.244,4.984,3.793,5.438l170.201,30.332c2.549,0.454,4.984-1.244,5.438-3.793l20.05-112.506
								l1.542-8.654l2.571-14.424c0.454-2.549-1.244-4.984-3.793-5.438l-68.742-12.251
								C278.812,262.669,277.064,263.345,275.997,264.73z"/>
							<g>
								<path style="fill:none;stroke:#121D30;stroke-width:0.75;stroke-miterlimit:10;" d="M337,273l-56.467-10.024
									c-1.721-0.307-3.469,0.369-4.536,1.754l-11.573,15.019L185.333,266"/>
							</g>
						</g>
					</g>
					<g>
						<rect x="97.096" y="505.166" style="opacity:0.41;fill:#969696;" width="307.265" height="9.13"/>
						<g>
							<rect x="97.096" y="297.445" style="fill:#DEDEDE;" width="307.265" height="207.676"/>
							<polyline style="fill:none;stroke:#121D30;stroke-width:0.75;stroke-miterlimit:10;" points="404.361,393.925 
								404.361,505.121 264.935,505.121 							"/>
							<polyline style="fill:none;stroke:#121D30;stroke-width:0.75;stroke-miterlimit:10;" points="97.096,505.121 97.096,297.445 
								153.113,297.445 156.969,297.445 							"/>
							<g>
								
									<line style="fill:none;stroke:#121D30;stroke-width:0.75;stroke-miterlimit:10;" x1="350.665" y1="485.621" x2="388.025" y2="485.621"/>
								
									<line style="fill:none;stroke:#121D30;stroke-width:0.75;stroke-miterlimit:10;" x1="381.001" y1="479.527" x2="388.025" y2="479.527"/>
							</g>
							<g>
								
									<line style="fill:none;stroke:#121D30;stroke-width:0.75;stroke-miterlimit:10;" x1="111.975" y1="306.575" x2="126.767" y2="306.575"/>
								
									<line style="fill:none;stroke:#121D30;stroke-width:0.75;stroke-miterlimit:10;" x1="111.975" y1="316.479" x2="157.709" y2="316.479"/>
							</g>
						</g>
					</g>
				</g>
			</g>
			<g>
				
					<ellipse transform="matrix(0.3775 -0.926 0.926 0.3775 -216.2036 482.2318)" style="fill:#2E363D;" cx="250.569" cy="401.922" rx="44.984" ry="44.984"/>
				<path style="fill:#FFFFFF;" d="M269.744,418.651l-16.729-16.729l16.729-16.729c0.673-0.673,0.673-1.774,0-2.447
					c-0.673-0.673-1.774-0.673-2.447,0l-16.729,16.729l-16.729-16.729c-0.673-0.673-1.774-0.673-2.447,0
					c-0.673,0.673-0.673,1.774,0,2.447l16.729,16.729l-16.729,16.729c-0.673,0.673-0.673,1.774,0,2.447
					c0.673,0.673,1.774,0.673,2.447,0l16.729-16.729l16.729,16.729c0.673,0.673,1.774,0.673,2.447,0
					C270.417,420.425,270.418,419.324,269.744,418.651z"/>
			</g>
		</g>
	</g>
</g>
</svg>
